<svg width="188" height="189" viewBox="0 0 188 189" fill="none" xmlns="http://www.w3.org/2000/svg">
<path d="M170.86 77.4371C179.44 116.306 157.731 154.797 121.464 168.272C118.073 169.53 114.549 170.573 110.916 171.375C106.722 172.301 102.529 172.876 98.3756 173.115C60.4373 175.303 25.445 149.707 16.9896 111.405C7.60673 68.9021 34.4473 26.8401 76.9323 17.4613C119.417 8.0824 161.477 34.9342 170.86 77.4371Z" fill="#1877F2"/>
<path d="M101.29 76.8871L104.991 93.652L125.724 89.0751L127.427 112.383L109.977 116.235L121.463 168.267C118.071 169.524 114.548 170.568 110.914 171.37C106.72 172.296 102.528 172.871 98.3743 173.109L86.9416 121.321L67.8204 125.542L62.835 102.958L81.9562 98.7372L77.4279 78.2245C74.6185 65.4984 82.6527 52.9008 95.3804 50.091L95.3828 50.1018C95.4205 50.0935 95.4505 50.0756 95.4882 50.0672L116.113 45.5141L120.425 65.0453L106.948 68.0205C102.943 68.9047 100.41 72.8739 101.294 76.8805L101.29 76.8871Z" fill="white"/>
</svg>
