<svg width="48" height="47" viewBox="0 0 48 47" fill="none" xmlns="http://www.w3.org/2000/svg">
<g clip-path="url(#clip0_17_68)">
<path d="M44.4469 0H3.54375C1.58437 0 0 1.51465 0 3.3873V43.6035C0 45.4762 1.58437 47 3.54375 47H44.4469C46.4063 47 48 45.4762 48 43.6127V3.3873C48 1.51465 46.4063 0 44.4469 0ZM14.2406 40.051H7.11563V17.6158H14.2406V40.051ZM10.6781 14.559C8.39063 14.559 6.54375 12.7506 6.54375 10.5199C6.54375 8.28926 8.39063 6.48086 10.6781 6.48086C12.9563 6.48086 14.8031 8.28926 14.8031 10.5199C14.8031 12.7414 12.9563 14.559 10.6781 14.559ZM40.9031 40.051H33.7875V29.1455C33.7875 26.5477 33.7406 23.1971 30.0844 23.1971C26.3812 23.1971 25.8187 26.0336 25.8187 28.9619V40.051H18.7125V17.6158H25.5375V20.6818H25.6312C26.5781 18.9193 28.9031 17.0559 32.3625 17.0559C39.5719 17.0559 40.9031 21.7008 40.9031 27.741V40.051V40.051Z" fill="white"/>
</g>
<defs>
<clipPath id="clip0_17_68">
<rect width="48" height="47" fill="white"/>
</clipPath>
</defs>
</svg>
