<svg width="116" height="113" viewBox="0 0 116 113" fill="none" xmlns="http://www.w3.org/2000/svg">
<path d="M71.7605 5.79883L24.1488 16.3094C10.9952 19.2132 2.6574 32.2794 5.56201 45.4369L15.1805 89.0075C18.0851 102.165 31.1489 110.507 44.3025 107.603L91.9142 97.0922C105.068 94.1885 113.406 81.1223 110.501 67.9648L100.882 24.3942C97.9778 11.2367 84.9141 2.89508 71.7605 5.79883ZM13.9771 43.5792C12.0974 35.0646 17.4949 26.6061 26.007 24.727L73.6187 14.2164C82.1308 12.3373 90.5877 17.7373 92.4674 26.2519L102.086 69.8225C103.966 78.3371 98.568 86.7956 90.0559 88.6747L42.4442 99.1853C33.9321 101.064 25.4753 95.6644 23.5956 87.1498L13.9771 43.5792Z" fill="white"/>
<path d="M62.9302 78.8905C75.1619 76.1903 82.9213 64.0379 80.219 51.7971C77.5168 39.5564 65.3679 31.7988 53.1307 34.5003C40.8935 37.2017 33.1396 49.3529 35.8418 61.5937C38.544 73.8345 50.693 81.592 62.9302 78.8905ZM54.9901 42.9232C62.5858 41.2464 70.1279 46.0623 71.8052 53.6602C73.4824 61.2581 68.6688 68.8016 61.0731 70.4784C53.4775 72.1552 45.9354 67.3393 44.2581 59.7414C42.5808 52.1435 47.3945 44.6 54.9901 42.9232Z" fill="white"/>
<path d="M78.1648 32.7345C81.4585 32.0074 83.5515 28.7347 82.823 25.4345C82.0945 22.1344 78.8236 20.0458 75.5244 20.7741C72.2252 21.5024 70.1377 24.7739 70.8662 28.0741C71.5947 31.3742 74.8656 33.4628 78.1648 32.7345Z" fill="white"/>
</svg>
