<svg width="189" height="189" viewBox="0 0 189 189" fill="none" xmlns="http://www.w3.org/2000/svg">
<path d="M77.5275 17.5429L77.1771 17.6203C34.7838 26.9789 8.00613 68.9422 17.3675 111.348L17.4449 111.698C26.8063 154.104 68.7617 180.894 111.155 171.536L111.505 171.458C153.899 162.1 180.676 120.136 171.315 77.7306L171.238 77.3801C161.876 34.9743 119.921 8.18429 77.5275 17.5429Z" fill="#00E510"/>
<path d="M114.305 113.74C94.6125 118.087 75.0519 105.592 70.6979 85.895C69.601 80.9005 72.7693 75.9427 77.7504 74.8431C78.2625 74.73 78.7788 74.6613 79.283 74.6405C80.3896 74.5828 81.4829 74.7203 82.5358 75.0591C82.6884 75.1102 82.8086 75.2194 82.8635 75.3656L87.8406 88.026C87.9021 88.1764 87.8869 88.3381 87.8095 88.474C86.9422 90 85.6782 91.2405 84.146 92.0594L83.4078 92.4542L83.8721 93.1491C88.0661 99.394 94.7383 103.65 102.174 104.836L103.001 104.97L103.048 104.134C103.146 102.399 103.739 100.73 104.757 99.3004C104.83 99.1939 104.944 99.1234 105.068 99.096C105.095 99.09 105.122 99.0841 105.156 99.0823L118.731 98.2684C118.893 98.2608 119.042 98.3185 119.153 98.4355C119.898 99.2494 120.484 100.189 120.903 101.216C121.094 101.672 121.242 102.165 121.358 102.688C122.459 107.676 119.296 112.632 114.305 113.74Z" fill="#FDFDFD"/>
<path d="M143.304 79.198C139.592 67.4289 131.635 57.5075 120.9 51.2644C110.101 44.9847 97.4517 43.004 85.2739 45.6924C58.5462 51.5927 41.6018 78.1464 47.5039 104.882C49.4847 113.855 53.8887 122.05 60.2542 128.63L54.9136 154.069L87.5768 143.121C93.9197 144.22 100.343 144.069 106.677 142.671C108.343 142.303 110.032 141.839 111.707 141.283C113.181 140.788 114.654 140.214 116.086 139.581C137.47 130.116 149.423 106.638 144.504 83.7399L144.447 83.481C144.125 82.0251 143.739 80.5834 143.298 79.1992L143.304 79.198ZM86.6237 132.682L68.5527 138.741L71.3749 125.275L69.9424 124.037C69.8377 123.947 69.7331 123.857 69.614 123.753C63.3532 118.185 59.091 110.914 57.2839 102.729C52.5723 81.3854 66.0976 60.1899 87.4345 55.4796C107.424 51.0668 127.811 62.9267 133.84 82.4803C134.162 83.5289 134.448 84.5913 134.681 85.6482C134.748 85.9502 134.808 86.248 134.873 86.5673C138.404 104.512 129.283 122.428 112.691 130.14C111.425 130.731 110.111 131.258 108.784 131.704C107.408 132.177 105.975 132.578 104.536 132.896C99.4093 134.028 94.2092 134.135 89.0697 133.211C88.5004 133.116 87.9382 133.003 87.4072 132.877L86.6315 132.692L86.6237 132.682Z" fill="#FDFDFD"/>
</svg>
